<svg xmlns="http://www.w3.org/2000/svg" xmlns:xlink="http://www.w3.org/1999/xlink" height="250.8" preserveAspectRatio="xMidYMid meet" version="1.0" viewBox="0.0 0.0 318.4 250.8" width="318.4" zoomAndPan="magnify"><g id="change1_1"><path d="M216.4,213.9l-0.7,0l-0.4,0.6c-0.1,0.2-10.1,17.7-30.5,20.5c0-0.3,0-0.5,0-0.8c0-0.1,0-0.1,0-0.2c0-0.3,0-0.7,0-1 c0-1.6-0.1-3.1-0.2-4.7l0-0.2l-0.1-1.1h0h0c-2-26.4-12.2-47.1-15.7-53.5c1-0.1,2-0.4,2.9-0.8c9.4-3.8,9.8-13.6,9.9-14l-2.7-0.1 c0,0.3-0.4,8.5-8.2,11.6c-3.1,1.3-6.7,0.6-9.2-1.7c-2.6-2.4-3.5-5.8-2.5-9.1l0.1-0.3c0.4-1.1,1-2.2,1.8-3.6 c4.4-6.7,11.3-10.8,19-11.2c18.4-1,35.5,15,35.7,15.1l0.3,0.3l0.5,0c2.4,0.2,4.8,0.3,7.3,0.3c42.5,0,94.2-24.7,94.7-24.9l-1.2-2.4 c-0.6,0.3-57.4,27.4-100.2,24.4c-2.7-2.4-19-16.5-37.3-15.5c-4.4,0.2-8.6,1.6-12.3,3.8c-0.1-0.8-0.3-1.6-0.5-2.5 c3-0.8,4.5-3.4,4.8-4.9c2.8-9.4-2.2-33.4-2.4-34.4c-5.1-30.2-11.9-36.2-26.9-49.5c-5.2-4.6-11-9.8-18.3-17.2 C97.6,9.8,101.7,1.6,101.7,1.5l-1.1-0.7l-1.1-0.8C98.8,1,94,10,122.4,39.1c7.3,7.5,13.4,12.9,18.4,17.3 c14.9,13.2,21.1,18.7,26.1,48c0.1,0.2,5.1,24.4,2.5,33.1c0,0.1-0.7,2.4-2.9,3c-3.3-13.4-10.8-29.6-11.2-30.4l-2.4,1.1 c0.1,0.2,10.4,22.5,12.2,36.1c-2.4,1.9-4.6,4.2-6.4,7c-0.9,1.4-1.5,2.6-2,3.7c-6.6-11.6-22.7-37.6-22.8-37.9l-2.3,1.4 c0.2,0.3,19.2,31.1,24.3,40.6c-0.1,3.2,1.2,6.4,3.7,8.7c1.7,1.6,3.8,2.6,6,2.9c1.4,2.4,6.8,12.3,11,26.7 c-3.7-3.2-10.8-3.5-14.4-3.4c1.2-3.7,1-7-0.7-9.8c-3.1-5.1-10.4-6.7-14.2-7.2c1.3-2.3,1.8-4.5,1.3-6.8c-1.3-5.8-8.1-9.2-8.4-9.3 l-0.2-0.1l-0.2,0c-6.4-0.9-12.2-0.3-14-0.1c-4.4-15.9-27.2-30.1-28.1-30.7l-2.5-1.5l0.5,2.9c0,0.3,4.3,25.9,7.8,49.7 c1,6.8-0.2,12.1-3.5,15.8c-4.4,5-11.6,5.9-14.5,6.1c-0.5-23.2-13.5-50.5-24.1-72.6c-4.7-9.8-8.7-18.2-10.8-24.6 c-7-20.9-6.3-55.4-6.3-55.7l0-0.5L2.1,0L0,1.7l41.7,51.9c-0.1,4.5-0.3,35.9,6.5,56.1c2.2,6.6,6.3,15.1,11,24.9 c10.6,22.2,23.8,49.9,23.8,72.8v1.3l1.3,0c0,0,0.1,0,0.3,0c1.9,0,11.6-0.3,17.5-7c3.9-4.3,5.3-10.4,4.2-18 c-2.8-19.1-6.1-39.3-7.3-46.8c6.1,4.2,21.2,15.6,24.5,27.5c-2.7,1.1-4.7,2.9-6,5.3c-2.8,5.1-1.6,11.6-1.1,13.8l-4.6,5 c-3.5,3.8-5.5,8.4-5.8,13c-0.5,9.4,5.9,12.7,8.6,13.7c-1.3,13,3.8,16.3,4.7,16.8c2.5,1.6,5.1,1.9,7.6,1.1 c5.9-1.9,9.5-9.8,10.2-11.5c0.3,0.2,0.7,0.5,1,0.7c0.4,3.3,2.8,17.5,16,19.7l0.4,0.1l0.3-0.1c2.1-0.8,8.3-2.4,11,0.3l0,0 c4.3,5,8.4,7.8,12.4,8.4l0,0l0.9,0.1c0.2,0,0.4,0,0.6,0c0,0,0,0,0,0c0,0,0,0,0,0c0.9,0,1.7-0.1,2.3-0.3c1.5-0.4,2.4-1.1,2.5-1.3 l0.4-0.4v-9.1c0-0.7,0-1.4,0-2c20-2.5,30.4-17.8,32.5-21.2c31.8-2,95.6,0,96.2,0l0.1-2.7C312.9,213.9,248.1,211.8,216.4,213.9z M181.8,247.7c0,0-0.1,0-0.1,0c-0.1,0.1-0.3,0.1-0.4,0.2c0,0-0.1,0-0.1,0c-0.1,0-0.3,0.1-0.4,0.1c-0.1,0-0.1,0-0.2,0 c-0.2,0-0.4,0.1-0.6,0.1c0,0-0.1,0-0.1,0c-2.2-7-3.4-12.7-3.1-15.5c0.1-1,0.4-1.7,1.1-2.2c0.8-0.6,2-0.8,3.2-0.8c0.3,0,0.6,0,0.9,0 c0,0.4,0,0.9,0.1,1.3c0,0.4,0,0.8,0.1,1.2c0,0.7,0,1.3,0.1,2c0,0.2,0,0.3,0,0.5c0,1.7,0,3.4,0,5.1v7.8c0,0,0,0,0,0 C182,247.6,181.9,247.7,181.8,247.7z M159.3,188.6c1.4,2.3,1.4,5.3-0.1,8.8c-10.5,4.6-25.4,7.2-28.3,7.7c-7.8-5.1-7-13.7-6.5-16.4 c3.1-0.4,12.9-2,20.9-6.2C147.2,182.6,156.2,183.6,159.3,188.6z M119.6,171.1c1.2-2.3,3.3-3.9,6.1-4.7c0.8-0.1,6.9-0.9,13.5,0 c1,0.5,5.9,3.3,6.8,7.4c0.4,2-0.2,4.1-2,6.3c-8.3,4.4-19.1,5.9-20.7,6.1c-2-0.4-4-2.3-4.6-2.9C118.5,181.9,117.1,175.7,119.6,171.1 z M108.4,201.7c0.2-4,2-8,5.1-11.3l4.2-4.5c0.9,0.8,2.4,2,4.1,2.6c-0.3,1.9-0.6,5.8,0.7,9.8l-0.3-0.2c-0.1,0.1-4.9,10.1-7,14.6 C113,211.9,108,209.4,108.4,201.7z M134.5,220.4c0,0.1-3.5,8.5-8.7,10.2c-1.8,0.6-3.5,0.3-5.4-0.9l-0.1-0.1c0,0-4.7-2.6-3.2-15 c1.4-3,4.9-10.2,6.5-13.6c1.2,2.2,2.9,4.3,5.5,6.1c-0.1,2.3,0.2,8.5,6.8,13.9L134.5,220.4z M131.9,207.6c4-0.7,18.3-3.3,28.7-7.9 c3.8-0.3,13.4,0,15.4,3.9c1.3,2.6-1.2,6.6-3.7,9.6c-15,7.2-27.9,8.7-31.8,9c0-0.3,0-0.6-0.1-0.6l0-0.7l-0.6-0.4 C132.4,215.8,131.8,209.9,131.9,207.6z M169.7,219.9c0.2,0.1,0.5,0.3,0.6,0.6c0.1,0.5-0.6,1.3-1.9,1.6c-0.6,0.1-1.3,0.1-1.8-0.1 c-0.2-0.1-0.5-0.3-0.6-0.6c-0.1-0.3,0.2-0.6,0.3-0.8c0.4-0.4,0.9-0.7,1.6-0.8c0.2,0,0.5-0.1,0.7-0.1 C169,219.7,169.4,219.8,169.7,219.9z M141,224.8c3.4-0.3,11.9-1.3,22.8-5.2c-0.4,0.7-0.5,1.5-0.4,2.3c0.2,1.1,1,2,2.1,2.5 c0.6,0.3,1.4,0.4,2.1,0.4c0.4,0,0.8,0,1.2-0.1c2.7-0.5,4.4-2.6,4-4.7v0c-0.2-1.1-1-2-2.1-2.5c-0.3-0.1-0.5-0.2-0.8-0.3 c1-0.4,1.9-0.9,2.9-1.3c0.8,0.9,2.2,2.9,2,5.3c-0.3,3.3-3.4,6.7-9,9.9c-10.5,5.9-14.2,7.2-15.1,7.4 C144.2,235.7,141.8,228.9,141,224.8z M165.7,238.3l-0.7,0.6c-2.4-1-5.2-0.8-7.5-0.4c2.4-1.1,5.5-2.8,9.6-5.1 c6.5-3.7,10-7.7,10.4-12c0.3-3.4-1.4-5.9-2.6-7.2c1.9-2.4,3.1-4.6,3.7-6.5c1.4,5.9,2.5,12.4,3.1,19.3c-1.6-0.1-3.8,0.1-5.5,1.3 c-1.2,0.9-2,2.3-2.1,4.1c-0.4,3.9,1.4,10.6,2.9,15.3C174.2,246.9,170.4,244.4,165.7,238.3z" fill="#ffffff"/><path d="M137.1,178.2c0.5,0,1-0.1,1.6-0.2c1.5-0.3,2.8-1,3.7-2c1-1.1,1.5-2.5,1.2-3.8c-0.5-2.6-3.5-4-6.8-3.4c-1.5,0.3-2.8,1-3.7,2 c-1,1.1-1.5,2.5-1.2,3.8C132.3,176.8,134.5,178.2,137.1,178.2z M135,172.7c0.5-0.6,1.4-1,2.3-1.2c0.4-0.1,0.7-0.1,1-0.1 c1.4,0,2.5,0.6,2.6,1.4c0.1,0.6-0.3,1.1-0.5,1.4c-0.5,0.6-1.4,1-2.3,1.2c-1.9,0.4-3.5-0.4-3.7-1.3C134.3,173.6,134.7,173,135,172.7 z" fill="#ffffff"/><path d="M164.5,159.8c-2.8,1.9-3.7,5.1-2.2,7.3c0.8,1.1,2,1.7,3.5,1.7c0,0,0,0,0.1,0c1.3,0,2.8-0.5,4-1.3c2.8-1.9,3.7-5.1,2.2-7.3 C170.6,158.1,167.2,157.9,164.5,159.8z M168.3,165.3c-0.8,0.5-1.7,0.8-2.5,0.8c0,0,0,0,0,0c-0.4,0-1-0.1-1.4-0.6 c-0.5-0.8,0-2.4,1.6-3.5c0.8-0.6,1.7-0.8,2.4-0.8c0.7,0,1.2,0.2,1.4,0.6C170.4,162.5,169.9,164.2,168.3,165.3z" fill="#ffffff"/><path d="M145,189c-1,1.1-1.5,2.5-1.2,3.8c0.4,2.1,2.6,3.5,5.2,3.5c0.5,0,1-0.1,1.6-0.2c1.5-0.3,2.8-1,3.7-2c1-1.1,1.5-2.5,1.2-3.8 c-0.5-2.6-3.5-4-6.8-3.4C147.2,187.2,145.9,188,145,189z M150.3,189.4c1.4,0,2.5,0.6,2.6,1.4c0.1,0.6-0.3,1.1-0.5,1.4 c-0.5,0.6-1.4,1-2.3,1.2c-1.9,0.4-3.5-0.4-3.7-1.3c-0.1-0.6,0.3-1.1,0.5-1.4c0.5-0.6,1.4-1,2.3-1.2 C149.6,189.5,149.9,189.4,150.3,189.4z" fill="#ffffff"/><path d="M165.8,211.2c0.5,0,1-0.1,1.6-0.2c3.3-0.7,5.5-3.2,4.9-5.8c-0.3-1.3-1.2-2.4-2.6-3c-1.2-0.6-2.7-0.7-4.2-0.4 c-1.5,0.3-2.8,1-3.7,2c-1,1.1-1.5,2.5-1.2,3.8C161,209.8,163.2,211.2,165.8,211.2z M163.8,205.7c0.5-0.6,1.4-1,2.3-1.2 c0.3-0.1,0.7-0.1,1-0.1c0.6,0,1.1,0.1,1.6,0.3c0.3,0.2,0.9,0.5,1,1.1c0.2,0.9-0.9,2.2-2.9,2.6c-1.9,0.4-3.5-0.4-3.7-1.3 C163.1,206.5,163.5,206,163.8,205.7z" fill="#ffffff"/></g></svg>