<svg xmlns="http://www.w3.org/2000/svg" xmlns:xlink="http://www.w3.org/1999/xlink" preserveAspectRatio="xMidYMid meet" version="1.0" viewBox="33.6 35.9 1466.1 1602.2" zoomAndPan="magnify" style="fill: rgb(136, 102, 83);" original_string_length="27195"><g id="__id290_sc32s9zt0a"><path d="m965.34 404.1c1.4224-1.2963 3.0571-2.5871 4.9858-1.6678 3.7762 1.7998 8.0679 0.6005 11.805 2.3058 1.5199 0.6937 3.07 1.0958 3.8837-0.7675 0.6454-1.4782 0.4687-3.0931-1.1215-4.0647-4.3351-2.6486-1.8586-4.2325 0.8595-5.8214 1.3284-0.7766 2.8138-1.4005 3.9142-2.4293 2.8909-2.7034 2.7553-6.3993 1.6682-9.5673-1.3247-3.86-4.1801-0.69-6.2612-0.4024-6.7794 0.937-13.519 2.1089-20.118-0.8423-0.908-0.4061-1.6811-1.0126-1.2763-2.0808 0.1451-0.383 0.9537-0.6739 1.4849-0.7212 1.5445-0.1377 3.1235-0.323 4.6506-0.1503 12.446 1.4073 20.472-6.8649 29.314-13.326 1.3943-1.0189 1.8911-2.4424 0.5778-3.9532-1.7617-2.0267-2.6124-4.2683-1.4832-6.8606 1.1577-2.6575 2.4898-4.9479 4.7275-0.6859 0.5853 1.1151 1.6002 2.2482 2.78 1.4597 1.3689-0.9148 0.1761-2.0761-0.3873-3.1569-3.6629-7.0275-3.4559-6.8349 3.2264-12.853 3.1086-2.7994 5.5272-6.4434 7.9114-9.9412 1.6203-2.3773 2.3157-4.5187-1.1705-6.8999-5.0402-3.4426-4.1686-8.7837 1.2939-11.233 1.6819-0.7541 3.6042-1.5384 5.368-1.4401 6.1846 0.3447 8.6434-3.4156 8.5494-8.4997-0.1389-7.525 4.7007-11.041 9.9619-14.457 3.3788-2.1935 7.0709-3.8358 7.764-8.5906 0.3275-2.2469 2.2776-3.618 4.52-4.2651 1.1942-0.3445 2.4175-0.5999 3.5905-1.0036 14.684-5.0536 15.049-5.052 15.347-21.178 0.2704-14.624 1.141-29.193 2.2805-43.757 0.9855-12.594 3.5767-24.549 14.072-33.168 0.8905-0.7313 1.1443-2.1924 1.8347-3.2199 5.2584-7.8264 11.646-14.34 20.122-18.865 8.9913-4.8005 16.248-12.288 26.004-16.146 11.588-4.5834 23.369-5.6652 35.418-3.85 3.0425 0.4584 6.0668 1.0722 9.131 1.0402 4.1505-0.0434 7.9982 0.9219 11.66 2.7576 4.9794 2.4963 9.8363 5.3025 15.703 5.1443 0.8777-0.0236 1.9812 0.2563 2.6235 0.8098 6.7375 5.8053 15.009 9.929 20.208 17.371 2.5139 3.5986 5.0013 7.1629 8.3259 9.9498 6.8993 5.7833 11.464 13.634 17.383 20.247 5.6586 6.3212 8.0518 16.063 4.4462 25.443-1.6884 4.3919-2.6201 8.8947-2.3434 13.645 0.1078 1.8466 0.33 3.987-0.433 5.5331-3.7433 7.5848-3.078 15.695-3.3435 23.716-0.0936 2.831-1.1619 5.2226-2.6078 7.7631-4.1945 7.3689-2.1266 12.732 5.8752 14.421 8.0243 1.6935 14.969 5.315 22.235 8.8631 14.351 7.0083 29.231 13.153 45.12 15.85 4.4246 0.751 8.2583 2.4997 12.293 4.0111 16.467 6.169 33.001 12.168 49.362 18.606 6.8374 2.6907 13.405 6.1333 19.912 9.5805 6.2462 3.3092 8.8945 9.9671 10.777 15.827 4.0165 12.499 11.072 23.453 16.089 35.407 5.0145 11.948 9.9521 24.243 18.014 34.4 6.1926 7.8012 11.084 16.043 12.579 25.486 1.6235 10.259 4.3955 20.527 3.2849 31.148-0.3201 3.0604 0.2385 6.0926 0.9154 9.1872 2.9144 13.324 5.3707 26.734 4.6488 40.503-0.177 3.3721 0.1678 6.53 1.8846 9.8361 1.9407 3.7369 3.3611 8.2604 3.3094 12.421-0.1672 13.501 4.3694 26.118 6.623 39.144 0.5814 3.361 1.3604 6.615 1.2297 10.044-0.047 1.233-0.3097 2.7374 0.2593 3.6714 6.2135 10.201 5.3313 22.094 8.1125 33.098 4.2908 16.975 5.0269 34.162 4.8053 51.585-0.1556 12.229-2.1625 24.066-4.8611 35.818-4.2272 18.408-8.1429 36.723-8.6455 55.804-0.3719 14.123-2.1174 28.33-6.2261 42.061-1.9055 6.369-1.517 13.047-0.5242 19.407 3.0342 19.437 2.9807 38.749-0.6766 58.06-1.2146 6.4123-4.2712 11.21-10.446 14.387-11.028 5.6729-21.574 12.1-30.151 21.435-6.2255 6.7754-15.391 5.6727-23.491 7.0649-2.2716 0.3904-3.7684-1.8909-3.975-4.3486-0.1638-1.9481 0.2295-4.382 1.822-5.0261 8.5389-3.4539 5.8518-11.073 6.4489-17.216 0.6224-6.4045-4.1523-9.4658-10.041-7.0887-1.7213 0.6949-3.3746 1.7058-5.1609 2.0634-4.4436 0.8897-5.274 3.7932-4.7013 7.6306 2.4872 16.661 2.6084 33.298-0.0858 49.967-0.5396 3.3383-0.2495 6.8282-0.1758 10.245 0.302 13.984-2.3832 27.727-3.2809 41.58-0.9845 15.193-3.4194 30.084-6.265 44.927-2.8995 15.124-5.2515 30.472-12.195 44.523-0.5454 1.104-1.1582 2.3191-1.2042 3.5032-0.5425 13.976-6.1782 26.84-8.6888 40.379-0.165 0.8904-0.2579 2.0056 0.126 2.7543 4.897 9.5463 2.7283 19.019-0.0133 28.557-0.4023 1.4001-0.274 3.2061 0.2544 4.5751 1.8654 4.8335 1.561 9.83 1.1547 14.746-0.4043 4.8936 2.1852 8.9912 2.7827 13.552 0.6047 4.6165-4.9983 6.6299-4.707 11.683 0.6901 11.972-0.9396 24.236 1.0022 35.946 4.3163 26.028 3.6639 51.686-0.0637 77.692-4.3741 30.517-14.048 59.579-22.07 89.12-3.0773 11.332-5.2687 22.901-8.1367 34.294-4.5979 18.264-11.216 35.954-14.266 54.695-1.7565 10.796 0.3209 20.069 5.5078 29.204 6.5605 11.554 16.855 19.786 25.746 29.268 1.2745 1.3591 2.8229 2.4745 4.0165 3.8944 10.117 12.035 23.419 17.77 38.636 20.071 9.157 1.3848 11.158 4.7101 9.375 14.08-0.2318 1.2178-0.2693 2.4713-0.4528 3.6998-0.6051 4.0519-2.486 5.5239-6.9918 5.1825-9.2831-0.7035-18.765-1.5864-27.93-0.4706-19.907 2.4236-39.678-1.1241-59.509-0.1626-3.6959 0.1791-7.7067 0.3199-11.095-0.8749-8.4075-2.965-17.039-2.433-25.635-2.814-2.1732-0.0964-4.3616 0.0735-6.5284-0.0813-3.6041-0.2577-8.3135 1.3215-10.27-2.5399-2.3029-4.5437-4.7697-9.6268-2.692-15.081 3.8444-10.092 6.4442-20.68 11.433-30.296 1.7936-3.4569 2.3251-7.2421 2.5938-10.626 0.7104-8.9504 2.1781-17.812 2.4579-26.84 0.8391-27.079-2.1044-54.034-2.0476-81.058 0.0306-14.628-1.4742-29.145-1.9642-43.728-0.4578-13.62-4.8613-26.739-7.6564-40.058-1.8945-9.0269-6.4253-17.628-5.0328-27.214 2.1918-15.089 1.3713-30.431 3.964-45.475 0.3667-2.1271 1.0454-4.1078 0.334-6.3713-1.1553-3.6759 0.1171-6.8102 3.1971-9.0017 3.3551-2.3872 2.756-4.8711 2.2555-8.714-1.1139-8.554-3.5273-17.403-3.0886-25.602 0.8285-15.488-4.464-29.728-5.7509-44.67-0.9292-10.787-4.7316-21.657-3.8307-32.197 1.5044-17.601-1.2091-35.388 2.7482-52.806 0.1991-0.8752 0.1909-1.8354 0.0906-2.7352-2.1946-19.68-2.9216-39.523-7.757-58.898-2.3387-9.3706-6.0819-18.18-9.4753-27.093-4.6475-12.206-7.8917-24.718-10.732-37.39-0.3274-1.4607-0.0157-3.473-1.9248-3.7288-2.1641-0.2901-3.2125 1.451-3.7102 3.3383-1.1792 4.4705-2.9738 8.9155-3.2675 13.452-0.4932 7.6192-3.3774 14.359-5.7668 21.401-3.5659 10.51-5.4836 21.575-10.472 31.62-1.4751 2.9702-1.0286 6.0978-0.9984 9.1638 0.1276 13.026 0.1647 26.022-3.4452 38.723-0.6813 2.3967-0.5704 4.9253 0.349 7.3326 1.3741 3.598 1.2098 7.2994 0.7172 11.019-0.0403 0.3042-0.3379 0.67-0.2416 0.8828 5.5907 12.343-1.4025 23.69-2.8048 35.473-0.226 1.8984 0.0962 3.6332 0.6427 5.4658 0.5145 1.7257 0.4365 3.6473 0.4921 5.4867 0.137 4.5354-6.1086 6.9934-4.4413 11.622 1.6107 4.4714 0.5763 8.2603-0.1439 12.596-0.9163 5.5161 0.4154 11.544-1.6013 16.851-2.2892 6.0233-1.12 12.834-4.7573 18.44-0.6582 1.0146-1.639 2.4249-1.3759 3.3362 2.0483 7.0914-2.7203 11.65-5.9756 16.734-6.3158 9.8628-8.6741 20.535-9.0471 32.287-0.4354 13.713 2.4203 27.111 2.0439 40.829-0.3514 12.814-2.0083 25.281-4.4756 37.751-3.178 16.063-6.2472 32.088-7.3149 48.533-0.9392 14.465-3.299 28.872-6.3854 43.089-4.5066 20.761-5.1658 41.789-4.4562 62.901 0.167 4.9702 1.887 9.6831 4.036 14.175 3.3766 7.058 5.3188 13.898 3.7438 22.25-1.5859 8.4108-0.266 17.352-0.4237 26.058-0.0612 3.3799 1.7729 4.9508 4.4091 6.3721 3.0366 1.6372 6.1123 3.6169 6.4756 7.4259 0.5845 6.1282 3.1208 12.196 1.1807 18.42-1.0415 3.3409-4.3206 4.3352-7.2577 5.1744-1.7104 0.4888-3.8274 0.472-5.5272-0.0621-15.676-4.9263-31.352-2.2035-47.003-0.0997-8.7754 1.1793-17.22-1.6085-25.886-1.6891-2.901-0.0269-4.954-2.4833-6.9111-4.4578-2.4865-2.5082-0.8528-5.1017 0.0342-7.7557 0.5782-1.7294 0.4686-3.6803 0.7466-5.52 0.9193-6.0848 3.2716-10.921 9.4636-13.649 4.8971-2.1575 7.2869-7.4323 11.167-10.943 1.9711-1.7837 1.5181-4.1029 0.8995-6.0837-2.4971-7.9971-1.2726-15.838-0.2368-23.928 1.2981-10.14 1.0803-20.422-0.2727-30.667-4.7565-36.013-13.606-71.16-22.396-106.31-6.4946-25.971-10.101-52.378-11.723-78.989-0.9414-15.451-0.0162-31.06 4.1801-46.206 0.2426-0.8755 1.0353-1.8842 0.8-2.5637-3.8263-11.052 2.4719-20.44 4.7529-30.509 1.3336-5.8862 3.0776-11.709 1.5499-18.096-1.1968-5.0043-1.4203-10.189 2.1394-15.146 2.5764-3.5874 1.4393-8.4852 0.3669-12.658-1.182-4.6003-0.8896-8.5765 2.4917-12.088 0.4294-0.446 1.2113-1.0156 1.1436-1.4103-1.7064-9.9487 5.993-18.651 3.5502-28.834-1.4077-5.8678-3.1473-12.026 0.5775-18.027 1.4066-2.2664-0.3527-4.7986-1.157-7.1267-2.3943-6.9303-2.7062-13.892-1.0289-21.093 2.1449-9.2085 1.2489-18.616 0.429-27.863-1.1224-12.656-2.2703-25.347-5.2434-37.776-0.9348-3.9076-1.2013-7.9244-1.4174-11.984-0.675-12.688-1.8613-25.349-2.8618-38.02-0.1212-1.5345-0.6448-3.1115-0.4258-4.5864 1.2911-8.6908 0.257-17.251-0.9474-25.853-2.9648-21.176-4.0013-42.472-3.7744-63.851 0.1027-9.6831-4.5355-13.806-13.912-11.568-4.8348 1.1544-9.8239 0.9657-14.583 2.6549-3.175 1.127-6.6945 0.6941-10.039-0.5789-9.7561-3.7135-16.627-10.557-21.479-19.57-2.6347-4.8944 0.379-8.8788 3.5925-11.466 7.2361-5.8248 9.1312-14.513 12.605-22.165 2.9006-6.3906 0.9343-13.361-2.7481-19.58-6.02-10.168-11.052-20.812-14.868-32.021-0.9017-2.6488-1.9906-5.1862-1.939-8.0838 0.0554-3.1217 1.1271-5.494 4.2193-6.502 8.6818-2.8302 15.365-9.274 23.586-12.952 3.5454-1.5864 5.778-4.5775 7.41-8.068 7.4006-15.828 12.51-32.338 15.297-49.605 1.9775-12.249 4.9436-24.331 6.0029-36.743 0.2332-2.7311 1.0299-5.5766 2.2455-8.0339 5.8535-11.834 7.4617-24.729 10.463-37.362 3.3278-14.006-1.6299-25.54-6.7556-37.48-0.9896-2.3056-2.4839-4.3413-5.4427-4.4225-3.5695-0.0981-4.7344 2.5406-5.6926 5.1808-2.0431 5.6285-4.8804 10.727-9.3485 14.785-2.2513 2.0443-3.4248 4.5277-2.7816 7.4669 1.6901 7.7239-2.2046 14.112-5.8217 19.901-8.6266 13.808-17.441 27.422-22.839 42.926-0.5972 1.7153-1.6654 3.3467-2.8134 4.7776-11.707 14.591-20.224 30.644-25.869 48.666-3.0357 9.6923-8.3719 18.707-17.46 25.598-7.1625 5.4307-11.714 14.299-18.014 21.188-6.6912 7.3162-12.783 15.178-19.412 22.554-11.578 12.885-12.735 32.488-2.7688 46.877 7.4059 10.692 14.517 21.625 18.705 34.061 2.2678 6.7344 4.2188 13.626 5.6409 20.583 2.4592 12.032 1.7967 23.414-7.956 32.717-4.8876 4.6619-6.2674 10.205-2.5656 16.676 1.4599 2.5522 2.7153 5.55 2.4517 8.8596-0.4069 5.1105-3.5737 7.2906-8.2531 5.2806-3.2304-1.3876-5.3768-3.9038-7.3719-6.8416-3.6367-5.3548-7.3312-5.2383-10.09 0.3698-1.9481 3.9603-4.461 6.1526-8.8167 7.3211-6.6123 1.7739-10.465 7.5571-14.949 12.222-14.958 15.56-31.713 28.558-51.451 37.621-8.1635 3.7482-15.967 8.2769-23.958 12.406-4.4664 2.308-6.8798 5.8191-7.7183 10.87-1.5248 9.1851-4.1204 18.069-7.3369 26.871-3.5114 9.6089-1.0626 19.511 1.3523 29.062 0.9266 3.6648 1.4564 6.9724 1.0541 10.853-0.8268 7.9774 1.5212 15.85 2.4113 23.776 0.5236 4.6624 1.6696 9.3616 0.2767 13.844-1.6735 5.3844-1.103 10.362 0.7636 15.427 3.1753 8.6149 4.8044 17.261 1.9044 26.414-0.7972 2.5161-0.6371 5.7384 0.1757 8.2886 2.7296 8.5649 1.1384 18.1 5.9984 26.14-2.8068 8.922 1.6566 13.879 8.7501 18.555 2.8346 1.8688 3.077 7.3011 5.2543 10.616 4.0908 6.2272 8.7227 12.1 13.147 18.107 1.29 1.7517 2.9871 3.2953 3.8987 5.218 3.8483 8.1176 9.824 13.51 18.744 15.304 5.6985 1.1459 6.2624 5.9213 6.3381 10.082 0.1588 8.7356 1.7845 17.314 2.1684 25.978 0.3832 8.6449 2.6346 17.107 1.3304 25.947-5.3946 36.56-18.158 70.172-39.309 100.52-5.5128 7.9089-11.01 15.798-15.762 24.214-5.1797 9.1738-4.7034 17.404 1.9704 25.836 8.8988 11.242 16.331 23.445 20.778 37.243 2.3687 7.35 0.9897 12.338-4.6258 16.507-5.2668 3.9102-10.195 4.0668-15.427 0.0897-2.4547-1.8656-4.5232-4.2446-6.7363-6.4219-13.066-12.855-26.136-25.711-38.078-39.638-2.8237-3.293-5.3997-6.8228-7.8469-10.409-5.2463-7.6882-5.8183-15.588-0.4117-23.481 2.1581-3.1503 3.7538-6.4529 3.72-10.342-0.028-3.2107 1.1636-6.0697 2.3465-8.9497 0.9435-2.2971 2.395-4.5468 2.675-6.9287 1.6686-14.189 6.7616-27.724 7.8174-42.025 0.4969-6.7314 4.424-12.261 7.5101-17.901 2.2527-4.1166 3.4719-8.5967 5.6819-12.605 3.243-5.8817 0.9332-10.693-3.1031-14.164-7.965-6.8511-14.189-15.525-23.589-20.964-6.0297-3.4889-12.291-5.8394-18.759-8.0037-3.2922-1.1017-5.1374 0.15-6.5781 3.2053-5.3282 11.299-7.548 22.802-3.7889 35.122 1.798 5.8925 0.9526 11.792-2.819 16.758-2.5353 3.3381-2.9202 6.4547-1.7976 10.402 1.2959 4.5566 0.6371 9.1918-0.7968 13.769-1.3886 4.4326-2.5257 8.97-3.384 13.534-0.7044 3.7454-1.2343 7.2286-5.0927 9.3423-2.7386 1.5005-2.6168 4.6796-3.1805 7.4205-3.6193 17.599-2.6649 35.364-0.942 52.968 1.059 10.82-0.1017 21.801 2.6047 32.48 1.7535 6.9186 3.3487 13.882 4.8349 20.863 2.3387 10.986 8.8817 18.938 17.74 25.342 3.268 2.3628 6.6389 4.6675 9.5348 7.4447 8.2054 7.869 4.6078 22.703-6.3405 26.072-3.6695 1.1292-7.2945 1.7168-8.0466 6.3982-0.1221 0.7605-1.118 1.9191-1.7821 1.9709-6.8665 0.5358-7.6909 7.2885-11.499 10.935-2.3005 2.2028-3.7088 4.6232-4.4197 7.9001-1.4723 6.7869-4.891 9.2856-11.708 9.6342-8.1683 0.418-16.086-1.4625-23.964-3.1077-6.3042-1.3162-10.679-7.847-8.3136-14.417 3.0685-8.5244 1.3002-16.15-0.0229-24.477-1.4935-9.3997-1.7173-19.343 4.991-27.619 1.208-1.4902 2.4701-3.2258 1.5292-5.0665-4.2103-8.2362-3.7705-17.539-6.2445-26.195-4.7839-16.739-11.692-32.769-15.981-49.672-1.9951-7.8623-3.5409-15.771-4.657-23.767-0.7333-5.2533-0.7625-10.689 0.9036-15.736 2.4048-7.2845 2.1487-14.685 2.2433-22.142 0.0722-5.692-0.0934-11.14-4.2032-15.733-1.927-2.1538-2.1968-5.1256-2.5505-7.8911-1.8963-14.827-6.945-28.938-10.205-43.454-1.496-6.6608-3.8849-13.716-7.1537-19.917-6.5201-12.369-7.2356-26.211-11.101-39.228-1.2242-4.1229-1.4857-8.4691-0.4423-12.879 1.7675-7.4702-1.9027-14.6-1.8082-22.03 0.0652-5.1244 0.106-10.101 5.5746-12.56 3.0869-1.3881 1.8264-3.7257 1.3918-5.4958-1.9946-8.1249-3.4563-16.534-6.7232-24.149-3.217-7.4988-3.8109-14.933-3.5779-22.731 0.1486-4.9697 0.6147-9.9055-3.4602-13.979-1.7275-1.7271-2.5718-4.454-2.1177-6.9673 1.4489-8.0168-0.2323-16.129 0.9683-24.14 0.8346-5.5688 1.6098-11.415-0.2363-16.667-4.6852-13.331-4.1767-26.904-2.644-40.463 1.2956-11.462-1.2509-22.17-4.5478-32.842-1.7366-5.6216-4.1203-11.04-5.9796-16.628-1.3897-4.1766-4.0726-6.1823-8.3887-5.6505-7.8793 0.9707-15.475-0.6541-23.074-2.2841-4.5848-0.9834-9.2192-1.5977-13.887-1.444-10.179 0.3353-19.749-2.3217-28.962-6.1282-13.89-5.7385-23.883-15.253-27.98-30.284-1.7088-6.2692-4.0223-12.39-6.334-18.473-1.7871-4.7036-2.6543-9.5163-3.1786-14.49-1.6914-16.044-2.8431-32.076-1.1805-48.21 0.6883-6.6784-0.1128-12.888-5.7803-17.796-3.4644-3.0002-4.0916-7.5037-3.8431-12.04 0.2622-4.7899 1.5544-9.4514 4.3575-13.116 5.2594-6.8747 5.3128-14.013 3.2477-21.879-2.369-9.024-3.453-18.276-4.1219-27.6-0.519-7.2338-0.491-14.335 2.5554-21.027 1.923-4.2243 0.4551-7.9197-1.1469-11.612-2.8569-6.5852-6.8453-12.546-10.75-18.533-18.685-28.649-37.3-57.348-52.795-87.9-7.8626-15.503-15.279-31.232-22.897-46.859-0.1975-0.0683-0.3951-0.1366-0.5926-0.2049 0.2773-0.0068 0.5547-0.0137 0.832-0.0205-2.2711 7.2126 0.3998 14.123 1.3487 21.124 1.7929 13.226 3.7447 26.421 7.0085 39.396 2.5252 10.039 6.3354 19.476 12.066 28.114 7.5727 11.413 11.035 24.227 12.666 37.622 0.8627 7.0894 1.4005 14.218 2.1296 21.324 0.3515 3.426 1.0317 6.7536 3.2364 9.577 3.2986 4.2246 4.228 8.9484 2.599 14.056-4.1002 12.858-3.7156 24.597 3.5417 37.024 6.235 10.676 6.5088 23.813 7.1568 36.261 0.2584 4.9633 0.1423 9.9514 0.05 14.925-0.0628 3.3912 0.1112 6.2534 4.76 5.8783 3.8935-0.3141 4.8383 2.0721 4.1388 5.3693-1.1595 5.4651-2.0651 11.026-3.7676 16.326-3.7967 11.817-3.8513 23.866-2.6896 35.965 0.3365 3.5046 0.3313 6.9091-0.6002 10.128-2.292 7.9189-1.6492 15.969-1.8842 24.012-0.5608 19.202-1.4523 38.371-3.4669 57.512-0.9643 9.1614 0.1129 18.572 0.66 27.847 0.419 7.1039 1.5215 14.165 2.1676 21.26 0.1369 1.5027-0.3746 3.0679-0.6098 4.6008-0.7826 5.1008-0.4578 9.8375 3.36 13.93 2.1643 2.3198 3.1477 5.1082 2.2039 8.5739-1.6628 6.1051-1.1517 12.514-0.1855 18.536 2.5058 15.621 1.8031 31.522 5.015 47.087 5.5054 26.679 4.6038 53.786 3.8882 80.786-0.5016 18.928-2.3456 37.816-3.1234 56.741-0.9299 22.625-3.7357 45.111-4.4826 67.756-0.3884 11.778-2.0936 23.508-1.5492 35.352 0.3862 8.4032 1.6845 16.649 3.6552 24.805 0.9728 4.0261 3.0299 7.4592 5.8639 10.444 11.266 11.863 25.174 20.047 39.191 28.064 2.4384 1.3948 5.0265 2.0577 8.0142 1.6597 3.0453-0.4054 6.3544-0.5575 9.1675 0.9299 4.6631 2.4657 8.9711 2.3884 12.961-1.0806 3.0884-2.6854 6.6036-0.5697 9.8452-0.8872 5.0249-0.4922 10.3 0.6514 14.948 3.0804 4.992 2.609 6.2836 6.4949 2.4865 10.485-5.3743 5.6475-7.6323 14.683-16.9 16.295-0.2756 0.048-0.56 0.3013-0.7532 0.532-10.696 12.781-25.226 13.529-40.094 12.303-14.456-1.1924-28.359 1.0236-42.225 4.7645-13.257 3.5769-26.79 5.1351-40.573 4.5078-4.4199-0.2012-8.6772-0.91-12.76-2.4004-6.1759-2.254-8.8997-6.2405-8.505-12.89 0.2563-4.318 0.9325-8.6909 2.0667-12.863 5.7545-21.17 3.5813-42.649 2.2072-63.983-1.5005-23.298-7.6521-45.922-12.334-68.701-6.1935-30.133-9.4496-60.813-16.516-90.709-7.3817-31.231-7.982-62.74-7.6543-94.46 0.1377-13.325 1.2641-26.633-2.0003-39.892-2.4561-9.9763-6.2065-19.483-9.2895-29.215-5.4718-17.272-8.6976-34.899-11.078-52.792-3.7778-28.394-11.11-55.883-22.232-82.313-2.8163-6.6923-9.5215-10.506-18.504-8.8804-8.9215 1.6141-17.246 0.2495-25.75-1.7607-8.9362-2.1122-9.9398-1.3849-11.365 7.8885-0.8002 5.208-1.4648 10.451-1.8658 15.703-0.544 7.1246-0.651 14.231-4.0692 20.86-1.8808 3.6476-1.6841 8.0435-1.2816 11.928 0.5848 5.6444-0.3714 11.099-0.4563 16.634-0.0976 6.3672-1.0149 12.302-4.6577 17.704-1.5598 2.3129-2.7094 5.0123-2.6406 7.8672 0.2135 8.8503-4.3953 17.643-0.216 26.586 0.5619 1.2025 0.178 3.1647-0.3803 4.5232-4.8204 11.728-5.717 23.828-3.7917 36.245 0.3034 1.9569-0.0458 3.9426-1.6821 5.0546-3.9592 2.6909-3.5152 5.9785-2.1148 9.8296 0.602 1.6555 1.0492 4.5475 0.1634 5.3748-6.3199 5.901 0.3324 14.78-5.0666 20.724-1.2744 1.4031-2.3652 3.0155-2.2706 4.9764 0.5346 11.086-4.4052 22.116-0.3342 33.247 0.3058 0.8361 0.3565 1.9032 0.1454 2.7703-4.6752 19.21 0.4474 38.367 0.8166 57.512 0.2926 15.172 1.0317 30.399 1.3851 45.615 0.4279 18.429-1.5503 36.635-4.5079 54.746-2.6462 16.204-1.3385 32.23 1.3261 48.23 0.7049 4.2324 1.5835 8.4874 5.7769 11.205 3.268 2.1182 5.112 5.7671 5.5202 9.4291 0.8436 7.5682 4.8591 14.934 1.6358 22.838-1.0191 2.4985 0.1612 4.91 1.3085 7.1309 5.8158 11.259 12.911 21.813 25.253 26.231 10.529 3.7695 14.171 12.526 18.322 21.028 2.7193 5.5701 0.4716 10.348-5.4142 12.865-16.862 7.2087-34.328 10.424-52.634 6.8754-0.6103-0.1183-1.3402-0.0603-1.8132-0.3811-10.196-6.9148-22.19-4.7225-33.373-6.6023-1.8312-0.3077-3.7185-0.2834-5.5803-0.4066-14.82-0.9807-13.186-8.941-9.2444-17.638 0.5104-1.1262 1.1167-2.2588 1.9016-3.2029 7.5268-9.0503 5.085-18.368-0.6955-26.53-5.0195-7.0876-6.2055-13.623-3.5573-21.746 5.3841-16.516 2.7154-33.102-0.8116-49.541-2.2828-10.639-5.4722-21.033-9.3426-31.224-5.7642-15.177-8.5003-31.153-11.812-46.946-4.3977-20.972-7.5448-42.17-10.784-63.355-4.5427-29.71-4.5536-59.393-1.4653-89.222 2.1422-20.691 3.7105-41.439 4.1993-62.266 0.1659-7.0697 1.4892-14.149 2.7187-21.148 1.7817-10.142 3.2638-20.205 1.3083-30.533-0.5636-2.9764-0.2337-6.2424 0.2711-9.2784 1.5049-9.052-0.327-17.974-0.6103-26.954-0.1361-4.3164-2.4883-6.0889-6.2719-6.6753-6.1246-0.9492-12.239-2.3583-18.397-2.606-8.8771-0.3572-14.771-4.8369-18.192-12.36-2.6403-5.8064-6.9787-9.1414-12.159-12.253-6.6445-3.9912-12.932-8.5809-19.334-12.97-4.5174-3.0966-7.3405-7.5399-9.4196-12.477-3.754-8.9143-8.8035-16.881-15.174-24.267-4.3748-5.0726-9.1902-6.7697-15.46-6.7026-10.686 0.1143-12.384-1.3926-13.376-11.962-0.3786-4.0309-1.0905-7.9719-1.6735-11.955-2.1379-14.606-1.8274-29.056 4.1496-42.899 0.8949-2.0727 0.9844-4.1127 0.9502-6.3362-0.2795-18.177 3.3816-34.989 16.246-48.936 3.7239-4.0374 6.3461-8.9247 7.6827-14.666 1.8494-7.944 7.7773-14.033 11.55-21.162 8.5914-16.234 16.347-32.603 21.339-50.463 4.1633-14.895 10.768-29.108 16.293-43.623 0.8816-2.3163 2.3581-4.5817 2.5525-6.9531 0.7673-9.3596 4.2931-18.074 6.0284-27.212 1.4135-7.4434 1.9717-14.836 1.3345-22.242-1.4373-16.707-1.9876-33.517-4.9348-50.067-1.178-6.6152 0.5779-12.965 1.0977-19.423 0.2838-3.5259-0.4126-5.4454-3.6617-8.0847-7.7157-6.2675-13.859-14.252-15.305-24.718-4.2477-30.746-11.2-61.173-11-92.444 0.0757-11.815 0.2482-23.63 0.4206-35.444 0.052-3.5627-0.1731-7.2776-3.8238-8.8365-9.2209-3.9375-12.129-12.813-16.646-20.439-1.2536-2.1165-1.7041-4.7891-3.2-6.6674-5.1512-6.4679-4.8084-12.896-1.2234-19.965 5.4561-10.759 11.206-21.348 15.339-32.807 2.0377-5.6496 6.5798-10.505 10.429-15.371 10.241-12.948 22.057-24.404 34.396-35.331 1.3937-1.2341 3.0486-3.1351 4.8021-1.9182 5.0563 3.5089 11.119 0.7378 16.234 3.028 3.6468 1.6328 5.4182-0.0412 6.0461-3.2528 0.9751-4.9876 2.4971-9.079 7.0976-12.392 3.072-2.2123-0.3527-5.4966-2.8252-6.053-7.5889-1.7076-10.396-8.4316-15.046-13.21-0.8473-0.8707-1.743-1.9938-1.9645-3.1277-2.2504-11.519-5.7141-22.952-3.0257-34.899 0.5667-2.518 1.5581-4.9988 4.278-5.6122 3.7271-0.8406 5.0475-3.442 5.519-6.6519 1.3553-9.2256 3.281-18.316-3.9201-26.617-5.3492-6.1663-3.5278-15.361 3.9992-18.915 8.4076-3.9692 11.691-10.525 13.106-18.842 2.1107-12.401 5.9378-24.076 14.168-33.922 0.5932-0.7096 1.3485-1.511 1.4717-2.3513 1.489-10.158 8.7136-17.643 12.398-26.78 3.1015-7.6928 8.3764-14.004 15.115-18.573 6.8855-4.6689 13.939-9.1925 22.226-11.52 8.2987-2.3311 15.796-6.8155 24.329-8.9402 13.227-3.2935 25.697-4.146 37.332 4.4587 1.4639 1.0827 3.2823 2.0723 5.0429 2.3075 17.224 2.3011 27.923 13.322 36.708 27.038 3.0287 4.7285 6.7694 8.9019 11.003 12.569 2.3984 2.0775 4.4919 4.3477 5.8225 7.1854 3.5541 7.5795 7.049 15.189 10.423 22.85 2.3446 5.3244 1.3724 10.538-1.9089 15.036-7.3033 10.011-4.3054 20.687-2.563 31.339 0.3342 2.0432 1.9703 2.9726 3.3268 4.258 11.362 10.767 9.5049 30.098-4.5102 37.727-6.1412 3.343-8.4738 7.6443-9.5242 13.637-2.4876 14.193-7.1354 27.623-14.019 40.282-3.1332 5.7623-3.9623 11.49-1.1538 17.835 2.3765 5.3688 3.8694 11.136 5.6504 16.759 1.1867 3.7466 3.1496 6.3907 7.1066 7.9001 13.009 4.9621 25.181 12.152 39.432 13.743 4.9421 0.5517 9.4612 2.9932 13.334 6.3077 11.68 9.9957 22.092 20.674 26.281 36.347 3.9194 14.664 9.2928 28.878 17.428 41.913 2.5204 4.0381 3.3238 8.6943 1.0485 13.386-2.662 5.4888-2.0941 12.311-7.3166 16.822-1.6648 1.4381-0.8325 4.1496-0.9307 6.2943-0.8882 19.388 1.194 38.44 6.3237 57.177 5.0789 18.551 9.8286 37.194 15.054 55.704 3.1263 11.074 7.381 21.746 13.899 31.373 0.865 1.2777 1.6719 2.6785 2.1226 4.1403 5.1364 16.659 14.536 31.606 19.682 48.201 6.2481 20.148 12.007 40.477 15.903 61.244 3.9569 21.096 9.473 41.779 15.955 62.207 6.379 20.104 12.597 40.229 17.536 60.762 2.9684 12.34 7.722 23.994 15.406 34.502 4.5944 6.2828 5.5386 14.359 5.9382 22.186 0.0631 1.2354-0.2519 2.4962-0.1391 3.722 1.488 16.168 1.5857 32.133-5.3683 47.388-1.3035 2.8596-0.5372 6.0989 0.9439 9.0201 3.2653 6.4395 4.7622 13.352 5.793 20.472 1.2578 8.6882 6.0201 11.34 13.693 7.5894 4.7871-2.3399 9.774-3.9011 14.778-5.5572 5.0136-1.6595 10.491-3.0734 14.144-6.834 4.9924-5.1384 10.799-6.7128 17.517-7.1841 11.178-0.7841 22.232-2.4725 32.8-6.4272 7.5032-2.8077 7.8414-3.7755 4.2951-10.654-0.1422-0.2758-0.4081-0.5128-0.472-0.7999-3.6715-16.494-17.39-27.721-22.643-43.463-5.2169-15.634-7.5756-31.152-1.3164-47 0.7941-2.0106 1.9822-3.8391 1.8076-6.164-0.4755-6.3301 2.5609-11.516 6.0932-16.244 5.6061-7.5033 9.8757-15.196 11.36-24.829 1.8726-12.149 14.601-19.01 26.059-14.778 5.3677 1.9828 10.385 1.6737 15.475 0.0566 9.6735-3.073 19.552-1.2352 29.335-1.4601 1.8262-0.042 3.6462 0.3148 5.4845-0.2012 4.7872-1.3436 9.2588 0.0582 13.597 1.8606 6.84 2.8421 13.642 5.782 20.39 8.8343 1.6594 0.7506 3.4052 1.8153 4.5084 3.2119 9.7184 12.302 22.314 21.967 30.449 35.916 4.681 8.0262 6.4044 15.913 6.5992 24.507 0.0931 4.1079 0.9578 8.7662-2.5493 12.371-0.531 0.5458-0.4692 1.7712-0.4974 2.688-0.6264 20.27-6.4095 39.713-9.5247 59.582-0.8199 5.2297-3.4034 9.9367-4.0481 15.268-0.7988 6.608-0.7291 7.1696 5.7776 8.7177 4.8317 1.1496 9.8085 1.8622 14.484 3.462 10.14 3.4697 18.688 3.1055 27.873-4.2633 6.9333-5.5623 12.357-12.958 20.424-17.153 1.8792-0.9773 3.2891-2.8157 5.0607-4.0483 5.7209-3.9794 5.7143-3.9323 3.5828-11.31-0.3308-1.1446-0.6113-2.5754-0.2213-3.613 2.7758-7.3824 1.7413-15.307 3.589-22.899 2.7684-11.376 4.1359-23.069 7.2414-34.432 1.1091-4.0579 1.0507-8.8287 0.1218-12.959-1.4474-6.4345 0.1158-12.864-1.1282-19.3-0.8819-4.5638 1.6227-9.0627 3.4269-13.346 7.8462-18.627 13.286-37.911 16.917-57.805 2.1611-11.841 4.5373-23.781 11.118-34.266 1.7492-2.7872 1.5221-5.9313 1.7179-9.0339 0.5811-9.2064 4.2865-16.735 12.289-21.745 1.0196-0.6382 2.5954-0.756 2.8329-2.0893 2.0878-11.724 13.261-19.669 13.22-32.375-0.015-4.7009 3.6645-8.5649 5.7632-12.432 6.2258-11.472 7.0666-25.772 17.948-34.767 0.9084-6.8042 5.8326-11.334 9.3733-16.658 1.143-1.7189 0.5471-3.7903-0.1901-5.4031-3.6013-7.8784-1.0333-15.372 1.7013-22.574 2.8682-7.5533 6.1255-14.884 6.1414-23.162 0.0042-2.1818 0.5065-4.1581 2.0719-5.9825 4.5172-5.2644 4.2817-11.469 2.4671-17.587-1.4251-4.8048-1.3708-9.1429 1.6584-13.255 0.1844-0.2503 0.427-0.4793 0.537-0.7597 4.5234-11.523 7.1-23.624 10.434-35.497 0.789-2.8091-0.0178-4.2144-3.3463-2.5465-2.3026 1.1538-5.354 3.8244-5.8178-2.257-0.1295-1.6981-4.3207-4.4564-7.9141-2.5239-1.9775 1.0636-4.1226 1.4679-6.3162 1.26-3.3757-0.3198-4.8004-2.5191-3.7781-5.8629 0.3544-1.159 1.3089-2.1242 1.7427-3.2711 1.1926-3.152 0.9879-5.5551-3.3112-5.4712-1.5515 0.0302-3.1116-0.0309-4.656-0.1755-0.5203-0.0487-1.0046-0.4843-1.5052-0.7431 0.3124-0.5037 0.5364-1.1078 0.9619-1.4835 0.4457-0.3934 1.0637-0.7392 1.6431-0.8116 7.1804-0.8965 14.065-2.05 17.722-9.6876 1.1047-2.307 4.475-1.8178 6.6185-3.0762 1.7897-1.0508 5.0062-0.834 4.9731-3.4354-0.0298-2.3595-2.7332-2.6567-4.8574-3.3202-6.559-2.0486-12.685-4.9702-17.021-10.652l-0.2054 0.2366zm72.901-107c-1.0631 0.6296-1.8647 1.3994-1.2258 2.753 0.0829 0.1754 0.5513 0.1689 0.8409 0.2467 0.1925-0.8292 0.427-1.6522 0.5507-2.4915 0.0355-0.2406-0.2498-0.5284-0.3882-0.7945 0.6088 0.4868 1.0679 0.4585 1.3772-0.0849-0.1571-0.0665-0.3655-0.2308-0.4613-0.1805-0.2569 0.1347-0.4656 0.3615-0.6935 0.5517zm369.65 475.89c-1.5579 20.505 3.1676 40.818 1.9513 61.317-0.0719 1.2141 0.0657 2.5189 0.458 3.6604 0.4045 1.1768 1.4148 1.9704 2.7722 2.0915 1.1113 0.0991 1.7708-0.6377 2.1152-1.475 2.4393-5.9255 6.9366-10.122 11.649-14.177 1.6692-1.4364 2.9878-3.085 2.5095-5.6263-0.4847-2.5755 0.8976-4.8438 1.686-7.1619 5.0641-14.89 6.4023-30.366 5.8293-45.843-0.8989-24.288-7.6202-47.634-14.234-70.807-1.9919-6.9783-3.2979-13.691-3.4338-20.77-0.1313-6.8353-0.0286-13.675-0.0609-20.512-0.0146-3.0936 0.2423-6.1953-0.9153-9.2083-3.7606-9.7899-3.0809-21.421-12.299-28.997-1.2089-0.9936-1.6244-3.3743-1.7726-5.1652-0.7484-9.0507-7.4729-16.278-7.6674-25.487-0.0176-0.8335-0.7297-1.6837-1.2125-2.4688-0.8127-1.3212-1.8422-2.9998-3.4142-2.6491-1.374 0.3066-2.5605 1.7768-2.5031 3.5578 0.4103 12.697-1.2866 25.453 0.907 38.095 1.9539 11.26 3.1328 22.654 5.9884 33.759 1.397 5.4325 0.2069 11.035 1.3239 16.624 3.2007 16.015 6.9199 32.092 8.0543 48.311 1.2299 17.58 4.0596 35.188 2.2692 52.932zm-421.92-326.08c0.6154-0.086 1.2307-0.1739 1.8464-0.2578 1.1954-0.1631 2.6935-0.0717 3.204-1.3211 0.6526-1.5979-0.9534-1.9052-1.9481-2.537-3.1317-1.9886-1.8276-4.282-0.0851-6.1898 1.864-2.041 4.1798-3.6634 6.1352-5.6308 0.5197-0.523 0.8602-1.9404 0.5269-2.4078-0.3872-0.5429-1.6767-0.815-2.4532-0.6465-4.5905 0.9961-8.952 2.6122-12.378 5.9846-2.0076 1.9761-4.1096 4.2002-2.4138 7.3126 1.6155 2.965 3.2555 6.185 7.5656 5.6936zm-671.43-167.76c-3.1832 1.2778-6.3299 2.5519-8.8007 4.9965-0.9151 0.9054-0.2344 1.6661 0.4859 2.1648 1.5194 1.0518 3.0468 2.1488 4.7137 2.9177 2.6669 1.2301 6.0518 4.1867 8.1512 2.3493 2.3428-2.0505-0.5997-5.663-1.2893-8.5556-0.3849-1.6149-0.9229-3.6562-3.2608-3.8727z" style="fill: inherit;"/></g><g id="__id291_sc32s9zt0a"><path d="m965.55 403.86c-0.0685 0.0791-0.1371 0.1582-0.2057 0.2374l0.2057-0.2374z" style="fill: inherit;"/></g></svg>