<svg xmlns="http://www.w3.org/2000/svg" xmlns:xlink="http://www.w3.org/1999/xlink" preserveAspectRatio="xMidYMid meet" version="1.0" viewBox="1.5 -4.4 508.9 515.4" zoomAndPan="magnify" style="fill: #ffffff;" original_string_length="1935"><g><g><g id="__id286_sc32s9zt0a"><path d="M98.997 478.517H245.17200000000003V511H98.997z" style="fill: inherit;"/><path d="M266.828 478.517H413.003V511H266.828z" style="fill: inherit;"/><path d="M254.917,193.895c19.072-19.072,76.952-76.952,98.551-98.552c21.545-21.545,21.545-56.601,0-78.145 C331.874-4.397,296.92-4.4,275.323,17.197l-12.75,12.749c-4.229,4.229-11.084,4.229-15.312,0l-12.749-12.749 C212.917-4.398,177.963-4.4,156.366,17.197c-21.545,21.545-21.545,56.601,0,78.146 C168.538,107.515,239.093,178.07,254.917,193.895z" style="fill: inherit;"/><path d="M102.327,201.462c-8.783-8.563-22.985-8.479-31.653,0.19c-8.776,8.776-8.776,23.055,0,31.831l86.871,86.871 c4.228,4.229,4.228,11.085,0,15.313c-4.229,4.227-11.085,4.227-15.313,0L55.36,248.796 c-12.328-12.328-15.826-30.19-10.502-45.663V56.234c0-12.031-9.477-22.038-21.127-22.308C11.559,33.644,1.548,43.4,1.548,55.574 V298.31c0,5.787,2.254,11.228,6.346,15.321l104.401,104.401c8.183,8.182,12.689,19.061,12.689,30.633v8.196h120.188V350.045 c0-5.797-2.38-11.448-6.529-15.504L102.327,201.462z" style="fill: inherit;"/><path d="M488.27,33.926c-11.651,0.27-21.128,10.278-21.128,22.308v146.942c5.491,15.939,1.504,33.614-10.502,45.62 l-86.871,86.871c-4.229,4.229-11.085,4.229-15.313,0c-4.229-4.228-4.229-11.084,0-15.313l86.871-86.871 c6.4-6.401,8.342-15.97,4.947-24.379c-6.004-14.848-25.166-18.792-36.605-7.638L273.352,334.546 c-4.144,4.051-6.524,9.702-6.524,15.499v106.816h120.188v-8.196c0-11.572,4.506-22.451,12.689-30.633l104.401-104.401 c4.092-4.093,6.346-9.534,6.346-15.321V55.574C510.452,43.526,500.604,33.674,488.27,33.926z" style="fill: inherit;"/></g></g></g></svg>