<svg xmlns="http://www.w3.org/2000/svg" xmlns:xlink="http://www.w3.org/1999/xlink" preserveAspectRatio="xMidYMid meet" version="1.1" viewBox="196.5 7.7 398.5 815.6" zoomAndPan="magnify" style="fill: #f6f2ef5e;" original_string_length="18025" transform="matrix(-1,0,0,1,0,0)"><g id="__id318_stzmwdzad"><path d="M383.1,255.4c3.5,0.4,7,1.1,10.4,2.2c1.7,0.6,3.3,1.1,4.9,1.7c5.2,1.9,9.2,5.3,12.9,9.4c4.7,5.1,7.5,11.2,10.5,17.3 c2.6,5.2,5.6,10.2,8.5,15.3c3.1,5.4,7.7,9.2,13.3,12c3.7,1.8,7.7,3.2,11.5,4.7c10.8,4.4,21.2,9.7,31.4,15.4 c9.8,5.4,16.9,13.5,22.8,22.7c2.7,4.2,3.6,8.9,4,13.7c0.4,4.7,0.5,9.5,0.3,14.2c-0.2,5.6-1.9,10.9-4.4,15.9 c-2.1,4.3-4.7,8.4-7.4,12.4c-2.1,3.1-4.2,6.1-6.3,9.2c-0.3,0.5-0.8,0.9-0.8,1.8c3.1-0.3,6.2-0.3,9.3-0.4c5.8-0.2,11.5,0.4,17.3,0.2 c5-0.1,10.1,0,15.1,0.6c1.1,0.1,2.2,0.2,3.3-0.1c6.8-1.5,12.5,0.8,16.9,5.7c3.7,4,6.7,8.7,8,14.1c1.2,5,0.7,10-0.6,14.9 c-0.7,2.8-1.7,5.6-2.8,8.3c-0.1,0.3-0.2,0.7-0.5,1c-2.2,2.6-3.8,5.5-5.9,8.1c-1.8,2.2-2.7,4.8-4.2,7.1c-1.2,2-0.9,3.4,0.5,5.2 c3,3.7,5.7,7.7,8.4,11.8c2.8,4.3,5.9,8.5,8.9,12.7c8.5,11.9,15,24.8,19,38.9c1.9,6.7,4,13.3,5.2,20.1c1.4,7.6,1.5,15.2,1.8,22.9 c0.6,14.1-2,27.9-5.3,41.5c-3.8,15.4-9.3,30.2-17.2,44c-7.9,13.7-17.9,25.9-29.4,36.7c-4.6,4.3-9.3,8.4-14.3,12.3 c-0.8,0.6-0.8,1.1-0.5,2c0.8,2,1.1,4.1,0.7,6.2c-0.8,4-3.8,5.9-7.8,4.9c-1.9-0.5-3.4-1.6-5.1-2.6c-0.1,0.7,0.3,1.1,0.6,1.6 c1.2,2.1,2.3,4.2,2.8,6.6c0.4,1.7,0.5,3.5-0.3,5.1c-1.2,2.6-4.7,4.2-7.6,2.9c-1.5-0.7-1.6-0.7-2.6,0.7c-1.2,1.8-3,2.5-4.9,3 c-2.6,0.7-4.6,2.8-4.9,5.4c-0.4,3.8-0.7,7.5-1.3,11.3c-0.8,5.7-1.8,11.4-2.8,17c-0.2,1-0.1,1.8,0.3,2.7c1.9,4.8,3.6,9.7,5.2,14.6 c0.2,0.6,0.4,1.3,0.5,1.9c0.1,0.4-0.1,0.7-0.5,0.9c-0.5,0.2-0.9,0.1-1.2-0.3c-0.3-0.5-0.6-1-0.7-1.6c-4-12.5-9.3-24.5-14.4-36.6 c-1.8-4.2-4-8.3-6.4-12.2c-2.2-3.5-5.1-6-9-7.7c-5.9-2.6-12-4.9-18.2-6.8c-7.3-2.2-13.4-6.3-19-11.3c-3.7-3.2-7-6.8-10.2-10.5 c-2.4-2.7-5.2-5.1-7.9-7.5c-4.2-3.7-9.2-6.1-14.2-8.5c-21.8-10.4-43.6-20.8-65.9-30.3c-10.7-4.5-21-9.8-31.3-15 c-0.7-0.4-1.4-0.7-2.2-1.1c-0.6,1.8-1.2,3.6-1.9,5.2c-3,7-6.2,13.8-9.9,20.4c-3.3,5.8-6.7,11.6-10.1,17.4 c-8.1,13.6-13,28.3-14.7,44c-0.5,4.9-1,9.9-0.9,14.8c0.2,9.3,2,18.4,4.3,27.4c1.2,4.9,2.7,9.7,4.5,14.4c1.7,4.5,3.8,8.8,6.4,12.9 c0.3,0.5,0.6,1,0.9,1.5c0.2,0.4,0.2,0.9-0.2,1.2c-0.5,0.4-1,0.3-1.4-0.2c-0.4-0.5-0.8-1-1.2-1.6c-3.6-5.2-6-11-8-17 c-3.6-10.9-6.2-22-7.3-33.5c-0.6-5.9-0.3-11.8,0.3-17.7c0.9-7.8,2.2-15.6,4.5-23.1c2.4-8.1,6-15.6,10.1-22.9 c3.6-6.3,7.3-12.4,10.9-18.7c3.5-6.1,6.3-12.5,9.3-18.8c0.8-1.6,1.3-3.2,1.8-4.9c0.6-1.8,0.5-1.8-1.1-2.7c-0.9-0.5-1.8-1-2.7-1.4 c-9.1-4.4-17.3-10.3-25.3-16.4c-8.9-6.8-17.8-13.4-27.2-19.5c-1.7-1.1-3.4-2.3-5.1-3.3c-8.4-4.9-16.2-10.6-24.1-16.3 c-3.5-2.5-6.5-5.7-9.6-8.6c-0.5-0.5-0.8-1-1.1-1.6c-1.7-4.2-2.9-8.5-3.6-13c-0.5-3.6-0.1-7.1,0.2-10.6c1-11.6,1.3-23.1,1.3-34.7 c0-23.4,0.1-46.8,0.4-70.2c0.2-17,0.9-34,1.9-50.9c0.5-8.2,0.7-16.5,1.1-24.7c0.1-2.7,0.4-5.4,0.6-8.1c0.5-6.7,0.2-13.3-1.3-19.8 c-1-4.4-2.4-8.7-3.1-13.2c-1.4-9.1-1.5-18.3-0.9-27.5c0.4-5.2,1.1-10.4,2.2-15.6c1.6-7.9,4.5-15.2,8.4-22.2 c2.6-4.6,5.1-9.3,8.1-13.7c0.8-1.1,1.4-2.4,1.9-3.7c8.7-18.6,16.1-37.6,21.7-57.4c2.8-10.1,4.5-20.4,5.2-30.8 c1.5-21.1,5-41.8,9.6-62.4c4.3-19.4,10.5-38,18.8-56c4.5-9.7,10-18.8,17.1-26.8c11.3-12.7,25.1-20.7,41.9-24 c4.5-0.9,9-1.4,13.6-1.5c6.8-0.2,13.3,1.2,19.8,2.8c16.8,3.9,32,11.5,46.7,20.1c7.7,4.5,15.4,8.9,22.3,14.5 c6.5,5.2,12.4,11,16.2,18.6c4.5,9,7.9,18.3,9.4,28.3c1.7,11.7,1.2,23.4-2,34.9c-2.3,8.4-4.8,16.6-8.3,24.6 c-1.5,3.4-3.1,6.6-5.2,9.6c-1.1,1.6-1.9,3.4-2.8,5.2c-0.5,1-0.6,1.9,0,2.9c0.7,1.3,1.4,2.7,2.1,4.1c1.8,3.5,1.1,7.9-1.7,10.7 c-1.7,1.7-3.7,2.8-5.8,3.8c-2.5,1.2-5,2.3-7.5,3.5c-2.4,1.1-2.9,2.8-1.6,5.2c0.2,0.4,0.5,0.9,0.8,1.3c1.5,2.1,1.4,4.2,0.2,6.3 c-1,1.6-2.1,3.2-3.7,4.3c-1.1,0.8-1.4,1.7-1.5,2.9c0,0.9-0.3,1.9-0.5,2.8c-0.5,2.6-2,4.4-4.6,5c-1.3,0.3-1.6,0.9-1.5,2.1 c0.1,1.3,0,2.6,0.1,3.9c1.2,9.1-4.9,16.8-14,17.7c-1.9,0.2-3.8,0.5-5.7,0.3c-0.8-0.1-1.4,0.2-1.9,0.8c-0.8,0.9-1.6,1.7-2.4,2.6 c-2.5,3-5.5,5.4-9,7.3C383.7,254.6,383.2,254.7,383.1,255.4z M459.6,460.8c-0.3-0.4-0.4-0.5-0.6-0.7c-2-2-2.2-3.6-0.6-6 c1.2-1.9,2.9-3.4,4.7-4.8c1.9-1.5,3.7-3.1,5.6-4.6c8.1-6.4,14.4-14.6,21.8-21.7c0.4-0.4,0.7-0.9,1.1-1.3c2.9-3.2,5.2-6.9,7.6-10.4 c2.7-4,5.3-8,7.5-12.3c2.2-4.3,3.9-8.8,4.1-13.7c0.3-5.7,0.3-11.4-0.4-17c-0.4-3.5-1.1-7-3-10c-5.2-8.3-11.3-15.9-20-21 c-8.7-5.1-17.6-9.6-26.8-13.8c-4.4-2-9-3.9-13.6-5.5c-4.6-1.7-8.6-4.7-13.3-6.1c-0.6-0.2-1.2-0.5-1.8-0.9 c-7.1-4.2-14-8.6-20.5-13.7c-3.6-2.8-7.2-5.4-10.9-8c-2.9-2.1-5.8-4.2-8.7-6.2c-6.4-4.6-12.5-9.6-18.7-14.4c-3-2.3-6.3-3.9-9.7-5.6 c-0.2,1.2-0.1,2.2,0.7,2.9c2.7,2.3,5.2,4.9,7.9,7.2c3.6,3.1,7.7,5.6,11.6,8.2c10.4,7.1,20.9,14.1,31.3,21.2c4.9,3.3,10,6.3,15,9.5 c7,4.4,13.6,9.3,20.5,13.8c9.7,6.3,17.3,14.7,24.7,23.4c0.5,0.6,1,1.3,1.4,1.9c7.4,11.3,9.5,23.9,9.1,37.2c0,0.8-0.1,1.6-0.2,2.4 c-0.1,0.7-0.5,1-1.2,1.1c-0.6,0.1-1-0.3-1.1-0.9c-0.1-0.6-0.5-1-0.8-1.5c-5.4-7.9-10.9-15.7-16.7-23.3c-4-5.2-8.3-10.1-13.5-14.2 c-5.4-4.2-10.8-8.4-16.2-12.6c-5.1-3.9-10.6-7.1-16.7-9.4c-4.4-1.7-8.9-2.9-13.2-4.7c-6.3-2.6-12.8-4.8-19.4-6.7 c-13.7-3.9-26.8-9.4-39.6-15.5c-5.6-2.7-11.1-5.8-16.6-8.8c-12.7-6.8-25.6-13-38.9-18.4c-5-2-10.1-3.4-15.5-3.6 c-5.3-0.2-10.3,1.4-15.3,3c-0.2,0.1-0.3,0.1-0.2,0.4c0.3,0,0.5,0.1,0.8,0.1c9.9,0.1,19.3,2.3,28.5,5.9c11.5,4.5,22.6,9.8,33.5,15.4 c10.6,5.4,19.6,12.7,27,22.1c7.6,9.7,9.6,20.5,7.5,32.4c-1,5.9-3.6,11.4-6.1,16.8c-3.3,7.2-7.5,14-11.1,21.1 c-1.9,3.8-4.1,7.4-6.7,10.8c-5.9,8-12.6,15.1-20.2,21.5c-7.8,6.7-16.1,12.5-25.5,16.7c-0.9,0.4-1.8,1-2.7,1.4 c-1.1,0.5-1.6,1.3-1.8,2.5c-0.8,3.9-1.6,7.9-2.5,11.8c-1.1,5.3-2.3,10.5-3.5,15.8c-0.2,1-0.6,1.9,0.2,2.9c2.7,3.5,5,7.4,7.8,10.8 c3.8,4.7,7.2,9.6,10.4,14.6c4.5,6.9,8.6,14.1,11.1,22c1.3,4.1,2.6,8.2,4,12.2c4.7,13.7,6.6,27.9,6.4,42.4c-0.1,8.7-0.5,17.3-0.8,26 c0,0.8,0,1.5,0.7,2.2c5.6,5.5,11.2,11,17.7,15.6c19.1,13.5,39.2,25.3,60,35.7c5.4,2.7,11.1,4.8,16.8,6.7c8.5,2.9,17.1,3.4,25.8,1.3 c1.3-0.3,2.7-0.5,4.1-0.7c4.4-0.5,8.8-0.9,13.2-1.5c7.9-1,15.8-0.9,23.7,0.8c7.6,1.7,15.1,4,22.7,5.4c5.8,1.1,11.6,1.2,17.4,0.9 c1.5-0.1,3-0.2,4.5-0.1c3.1,0.1,6.2,3.6,6.8,6.3c0.3,1.4,0.5,2.8-0.2,4.1c-1.5,2.8-3.2,5.3-6.2,6.8c-4.8,2.5-9.9,3.4-15.1,3.9 c-5.7,0.5-11.2-0.6-16.7-1.6c-0.5-0.1-1.1-0.3-1.8,0.1c0.7,1,1.4,1.8,2,2.7c4.5,5.8,9.5,11.2,14.6,16.5c6.4,6.7,11.6,14.4,18.1,21 c0.3,0.3,0.5,0.9,1.1,0.9c0.6-0.5,1.3-1,1.9-1.5c7.1-5.8,14-11.9,20.3-18.6c15.3-16.2,26.7-34.9,33.7-56.1 c6.3-19.2,10.8-38.7,10-59.1c-0.4-11.3-1.8-22.4-4.8-33.4c-3.7-13.1-8.5-25.7-15.6-37.4c-2.9-4.7-6.3-9.1-9.5-13.7 c-4.2-6-8.1-12.3-12.5-18.2c-0.5-0.6-0.8-1.4-1.6-1.7c-1.6,2.5-3.2,5-4.8,7.4c-1.3,1.9-2.7,3.7-4.7,4.9c-2.1,1.3-4.1,2.8-6.2,4.1 c-11.6,6.8-24,11.5-37.4,13.6c-1.7,0.3-3.5,0.5-5.2,0.1c-2.1-0.5-3.8-1.6-4.5-3.7c-0.7-2.1,0.2-3.8,1.7-5.3 c1.6-1.6,3.5-2.6,5.7-3.1c7.5-2,14.2-5.7,20.6-9.8c0.6-0.4,1.4-0.7,1.9-1.8c-2.2,0.7-4,1.3-5.9,1.9c-7.6,2.3-15.1,4.9-22.2,8.5 c-2.4,1.2-4.8,2.4-7.3,3.5c-4.4,2.1-9,3.4-13.9,3.5c-6.2,0.2-12-1.2-16.6-5.8c-0.8-0.8-1.5-0.9-2.5-0.7c-4.4,0.7-8.4-0.2-11.8-3.2 c-2.8-2.4-3.4-5.5-2-8.9c0.5-1.1,1-2.1,1.5-3.1c-0.2-0.2-0.4-0.4-0.5-0.5c-3.1-1.7-3.7-5.8-2.4-8.7c0.9-2,2.1-3.8,3.7-5.3 c2.2-2.1,4.7-3.9,7.2-5.6C448.1,466.1,453.7,463.3,459.6,460.8z M284.8,437.4c7.8-3.6,15-7.4,21.4-12.5c3.2-2.5,6.4-5.1,9.4-7.8 c7.9-7,14.7-15,20.5-23.8c0.7-1,1.6-2.1,1.8-3.2c0.3-1.5,1.1-2.7,1.8-3.9c5.1-8.4,9.7-17.1,13.4-26.3c2.6-6.4,4-13.1,3.3-20.1 c-0.6-6.1-2.2-11.9-5.9-16.9c-5.7-7.8-12.3-14.8-20.7-19.8c-12-7.2-24.8-12.9-37.7-18.3c-6.1-2.6-12.4-4.7-18.9-5.9 c-5.9-1-11.9-1.2-17.8-1.4c-0.7,0-1.3,0.1-1.9,0.3c-7.9,3.2-15.2,7.4-21,13.8c-5.8,6.3-10.1,13.7-14.2,21.2 c-1.9,3.5-3.1,7.2-3.9,11.1c-0.6,3.4-1.1,6.9-1.1,10.4c0,5.6-0.8,11.2-1.9,16.7c-1,4.9-2.5,9.6-3.5,14.4c-2,9.2-2.6,18.6-3.1,28 c-0.6,10.4-0.8,20.8-1.4,31.2c-1,16.2-1.4,32.3-1.5,48.5c-0.2,22.5-0.2,45-0.3,67.6c0,8.7-0.3,17.3-1,26c-0.4,4.7-0.8,9.4-0.6,14.2 c0.2,4.1,1.1,8,3,11.5c1.7,3.3,4.3,6,7.3,8.3c6.7,5.2,13.7,10.2,20.9,14.7c2.9,1.8,6,3.1,8.7,5c10.8,7.6,21.4,15.4,31.9,23.4 c5.3,4,10.6,8,16.4,11.2c14.6,7.8,29.4,15.4,44.7,22c22.1,9.6,44,19.8,65.7,30.2c6.1,2.9,12.3,5.6,17.2,10.6 c2.3,2.3,4.9,4.3,7.1,6.7c3.1,3.4,6.2,6.8,9.6,9.9c5.5,4.9,11.5,9,18.6,11.2c6.4,2,12.7,4.3,18.8,7.1c2.8,1.3,5.8,2.4,8.7,3.5 c2.8,1.1,5.5,0.8,8.3-0.8c-1-0.9-2.2-1.2-3.3-1.8c-6.3-3-12.4-6.4-19.1-8.6c-0.3-0.1-0.7-0.3-1-0.5c-0.4-0.3-0.7-0.8-0.5-1.3 c0.2-0.5,0.7-0.8,1.2-0.7c0.8,0.2,1.6,0.4,2.3,0.6c5,1.7,9.7,3.9,14.4,6.3c4.6,2.3,9.2,4.3,14,6.1c1.6,0.6,3.3,1.1,5,1.4 c2.4,0.4,4.5-0.1,6.3-1.8c1.1-1,1.1-1.4-0.1-2.3c-1.7-1.2-3.4-2.3-5-3.6c-6.9-5.2-13.9-10.4-21.6-14.5c-0.3-0.1-0.5-0.3-0.7-0.5 c-0.6-0.4-1-1-0.6-1.7c0.5-0.8,1.2-0.7,1.9-0.4c0.3,0.2,0.6,0.4,1,0.5c6.4,3.3,12.3,7.3,18,11.6c3.3,2.5,6.7,5,10.1,7.3 c0.8,0.6,1.7,1.1,2.6,1.5c2.3,1,4.5-0.4,4.6-2.9c0.1-1.1-0.3-2.2-0.6-3.2c-0.9-2.6-2.2-4.9-3.9-7c-6.9-8.3-14.3-16.1-23.1-22.5 c-0.5-0.3-1-0.6-1.3-1.2c-0.3-0.4-0.3-0.8,0-1.2c0.3-0.4,0.7-0.6,1.1-0.5c0.5,0.1,0.9,0.4,1.3,0.7c2.4,1.6,4.8,3.3,6.9,5.3 c6.3,6,13.4,11,20,16.6c1.3,1.1,2.7,2,4.4,2.4c2.4,0.6,4-0.5,4.4-2.9c0.3-2.1-0.2-4-1.2-5.9c-1-1.8-2.4-3.3-3.8-4.8 c-1.9-2-3.8-4-5.5-6.2c-4.3-5.6-9-10.9-13.9-16c-6.6-6.9-12.6-14.3-17.8-22.4c-0.8-1.2-1.6-2.5-2.1-3.8c-0.3-0.7-0.4-1.5,0.4-1.9 c0.8-0.4,1.4,0,1.8,0.7c0.6,1,1.2,2,1.8,3c3.1,4.7,1.7,3.8,7.1,4.8c4.9,0.9,9.9,1.8,15,1.5c5.1-0.3,10.1-1.1,14.8-3.4 c2.3-1.1,4-2.9,5.1-5.2c1.7-3.3-0.6-7.2-4.4-7.3c-1.6,0-3.2,0.1-4.8,0.2c-4.9,0.1-9.8,0.3-14.6-0.7c-5.4-1-10.9-2.1-16.2-3.6 c-2.4-0.7-4.9-1.3-7.4-1.8c-5-1-10-2.1-15.1-1.9c-4.4,0.2-8.9,0.7-13.3,1.2c-5.5,0.6-11,1.1-16.5,2.1c-4.9,0.9-9.9,1.1-14.8,0.2 c-8.6-1.5-16.8-4.4-24.6-8.2c-11.1-5.5-22-11.3-32.7-17.7c-10-6-19.8-12.3-29.3-19c-8.3-5.9-15.4-13.2-22.5-20.3 c-10.5-10.5-21.4-20.4-33.5-29.1c-4.4-3.1-8.6-6.5-12.5-10.3c-1.3-1.3-2.1-2.9-2.1-4.7c-0.1-5.3-0.2-10.6,0.3-15.9 c0.7-7.5,2.4-14.8,3.6-22.2c1.1-7.1,2.5-14.1,3.7-21.1c1.5-9.3,3-18.7,5.1-27.9c2.7-12.2,5.4-24.5,7.7-36.8 c1.5-8.1,2.9-16.2,4.6-24.3c1.4-6.4,3.4-12.7,4.6-19.1c0.2-0.8,0.3-1.6,0.5-2.3c0.2-0.7,0.4-1.6,1.4-1.3c0.8,0.2,0.6,1,0.5,1.7 c-0.4,2-0.7,4-1.2,6c-2.3,9.9-4.8,19.7-6.5,29.7C286.7,427.3,285.8,432.2,284.8,437.4z M207.9,353.6c0.6-1,0.7-2.2,0.9-3.3 c1.1-4.3,1.5-8.6,1.4-13c-0.1-3-0.3-6.1,0.1-9.1c0.8-8.3,2.9-16.2,6.2-23.8c3.9-9,9.2-17.2,16-24.4c8.1-8.6,17.5-15.3,27.7-21.1 c9.3-5.3,18.4-10.6,27.1-16.8c7.1-5.1,13.7-10.6,20.5-16c12.7-9.9,24.3-20.9,34.1-33.7c5.5-7.3,11.2-14.6,15.7-22.6 c0.4-0.7,0.8-1.5,1.8-1.2c0.8,0.2,1,1.1,0.5,2.2c-0.6,1.6-1.5,3-2.4,4.4c-2.8,4.4-5.9,8.7-9,12.9c-6.8,9.2-14,17.9-22.3,25.8 c-5.9,5.6-12.4,10.6-18.7,15.8c-12.1,9.9-24.6,19.2-38.2,27c-5.3,3-10.5,5.9-15.6,9.2c-14.1,9.1-25.6,20.7-33.1,35.9 c-0.4,0.7-0.9,1.5-0.9,2.4c1.3-1.8,2.5-3.7,3.8-5.6c3.4-5.1,7.2-9.7,11.9-13.6c8.1-6.5,17.4-10.5,27.3-13.3 c4.3-1.2,8.7-1.8,12.9-3.2c6.6-2.2,13.1-4.5,19.4-7.3c17.4-7.5,34.1-16,48.3-29c8.6-7.8,17.4-15.6,25.8-23.7 c13.4-12.9,26.1-26.5,37.3-41.4c3.1-4.1,5.9-8.3,9.2-12.2c7.6-9,14-18.8,19.8-29c2.8-4.8,5-9.9,6.5-15.2c1.5-5.2,3.2-10.3,3.9-15.7 c0.8-6.4,2.4-12.6,3.8-18.8c0.7-3.2,0.8-6.4-0.6-9.4c-2-4.4-4.7-8.4-8.1-11.8c-7.2-7.2-15.8-12.4-24.4-17.7 c-6.5-4-13.3-7.3-20.2-10.5c-9.8-4.5-19.6-9-29.9-12.2c-7.9-2.5-16.1-3.5-24.3-3.2c-3.1,0.1-6.2,0.7-9.3,1.3 c-13.5,2.5-25.2,8.3-35.2,17.7c-8.2,7.7-14.5,16.9-19.6,26.9c-5.6,11.1-10.1,22.6-14,34.4c-5.4,16.3-8.6,33.1-11.8,49.9 c-2.5,13.1-3.6,26.4-4.8,39.7c-0.9,9.9-2.4,19.7-5.1,29.2c-4.2,15.1-9.7,29.8-15.8,44.2c-3.9,9.2-8,18.2-13.6,26.6 c-4.6,7-8,14.5-10.1,22.7c-1.6,6.5-2.5,13.2-3,19.9c-0.5,8.5-0.3,16.9,0.9,25.3c0.7,4.8,2.1,9.4,3,14.1c0.1,0.7,0,1.6,0.6,2.4 c0.7-1,0.6-1.9,0.6-2.8c0-5.5-0.6-10.9-0.7-16.4c-0.1-7.4-0.1-14.9,0.7-22.3c0.9-8.6,3-17,7.4-24.5c7.5-12.9,16.6-24.5,28.4-33.8 c8.3-6.5,16.7-13,24.7-19.9c14.8-12.8,28.8-26.4,42.3-40.6c7.8-8.3,15.6-16.6,22.4-25.7c6.4-8.6,12.4-17.4,17.6-26.9 c0.4-0.8,0.8-1.7,1.6-2.3c0.4-0.3,0.9-0.5,1.4-0.1c0.5,0.3,0.6,0.8,0.4,1.4c-0.1,0.3-0.2,0.5-0.4,0.8c-7.3,14-16.2,26.8-26.4,38.8 c-7.4,8.7-15.3,16.8-23.2,25c-14.6,15-29.9,29-46.2,42c-5.5,4.4-11.2,8.6-16.6,13.2c-8.6,7.5-15.4,16.5-21.5,26 c-5.6,8.7-8.3,18.2-9.2,28.4c-0.8,8.7-0.4,17.3-0.3,26C207.4,352.5,207.2,353.2,207.9,353.6z M451.7,504.1c0.5,0.8,1.3,1.3,2.1,1.8 c3.4,2.2,7.1,2.8,11,2.9c5.1,0.1,9.8-1.3,14.3-3.4c6-2.7,11.8-6,18.1-8.2c9-3.2,18.2-5.8,27.2-8.8c0.3-0.1,0.6-0.1,0.9-0.2 c0.5-0.1,1,0.1,1.3,0.6c0.3,0.6,0.1,1.2-0.5,1.5c-0.6,0.4-1.3,0.7-2,1c-1.1,0.5-2.3,0.9-3.2,1.8c-5.1,5.3-11.5,8.7-18,11.8 c-3,1.4-6,2.5-9.2,3.4c-1.8,0.5-3.6,1.3-4.9,2.8c-1.3,1.5-1,2.8,0.7,3.7c0.7,0.4,1.4,0.5,2.1,0.5c1.2,0,2.5-0.1,3.7-0.3 c8.3-1.1,16.1-3.9,23.8-7.1c5.5-2.3,10.6-5.1,15.6-8.3c3.6-2.3,6.3-5.3,8.5-8.8c2.4-3.8,4.5-7.8,6.4-11.9c0.8-1.6,1.5-3.2,2.7-4.5 c1.7-1.8,2.9-4,4.6-5.8c0.8-0.9,1.4-1.8,1.9-2.9c1.2-3.1,2.3-6.3,3-9.6c1.1-5.2,1.2-10.4-1.1-15.4c-1.5-3.4-3.6-6.5-6-9.3 c-2.2-2.6-5-4.2-8.3-5.1c-1.5-0.4-3.1-0.8-4.7-0.3c-1.9,0.6-3.7,0.5-5.6,0.4c-3.8-0.3-7.5-0.5-11.4-0.4c-3.6,0.1-7.1,0-10.7-0.1 c-6.6-0.3-13.1-0.3-19.7,0.3c-2.6,0.2-4.7,1.3-6.4,3.3c-6.9,8.3-14.8,15.6-23.4,22.3c-1.2,0.9-2.2,1.9-3.2,3 c-1.9,2.2-2,3.4,1.7,4.4c0.8,0.2,1.5,0,2.1-0.3c6.2-2.5,12.2-5.2,17.6-9.2c4-3,7.9-6.2,11.4-9.9c0.4-0.5,0.9-0.9,1.4-1.4 c0.5-0.5,1.2-0.7,1.8-0.2c0.7,0.6,0.5,1.3-0.1,1.9c-0.3,0.3-0.6,0.6-0.9,1c-3.2,3.4-6.6,6.6-10.3,9.5c-3.6,2.8-7.3,5.4-11.5,7.2 c-4.4,1.9-8.8,3.8-13.3,5.5c-4.8,1.9-9.4,4-13.7,6.7c-3.4,2.1-6.8,4.3-9.7,7c-1.7,1.5-3.1,3.3-3.8,5.5c-0.9,3.1,0.8,5.1,3.9,4.6 c1.1-0.2,2.1-0.4,3.2-0.8c4.2-1.3,8.2-3,12.2-4.8c8.2-3.7,16.4-7.6,24.8-10.9c4.5-1.8,8.8-3.9,13-6.1c4.9-2.6,9.9-4.9,15.1-7 c0.4-0.2,0.8-0.3,1.2-0.5c0.6-0.2,1.2-0.1,1.5,0.5c0.4,0.6,0.2,1.1-0.2,1.6c-0.6,0.6-1.3,0.9-2.1,1.2c-5.4,2.2-10.7,4.7-15.8,7.4 c-3,1.5-5.9,3.1-9,4.4c-9.4,3.8-18.6,8-27.8,12.2c-4.4,2-8.9,4-13.7,5.1c-2.3,0.5-3.6,1.6-4.3,3.7c-0.1,0.3-0.2,0.5-0.4,0.8 c-1.2,2.7-0.7,4.8,1.8,6.5c2.7,1.9,5.6,2.7,8.9,2.2c2.1-0.3,4.1-1,6.1-1.7c9.1-3.2,17.8-7.2,26.6-11c7.1-3.1,14.1-6.7,21.2-9.9 c6.8-3.1,13.7-5.8,21-7.4c0.5-0.1,1-0.2,1.5-0.2c0.5,0,1,0.2,1.2,0.8c0.2,0.6,0,1.2-0.6,1.5c-0.7,0.3-1.4,0.5-2.1,0.7 c-8.1,2-15.8,5.2-23.3,8.7c-8.5,4-16.8,8.3-25.6,11.7c-6.7,2.6-13.1,6-20.1,8C452,503.6,451.8,503.7,451.7,504.1z M483.6,386.6 c0.4-3.1-0.1-6-0.3-8.9c-0.4-5.6-1.7-11.1-3.7-16.4c-2-5.2-4.8-9.9-8.6-14.1c-5.9-6.5-11.8-13.2-19.2-18.1 c-9.6-6.5-19-13.3-28.9-19.3c-4.7-2.8-9.2-5.9-13.8-8.9c-9.6-6.5-19.1-13.1-28.8-19.5c-5.1-3.4-9.8-7-14.2-11.3 c-0.3-0.2-0.4-0.8-1-0.5c0,0.2,0,0.4,0.1,0.6c2.3,5.8,5.1,11.3,9.6,15.8c0.6,0.6,1.1,1.1,1.6,1.8c0.5,0.5,0.6,1.2,0.1,1.8 c-0.6,0.6-1.2,0.5-1.8,0c-0.8-0.7-1.7-1.4-2.4-2.2c-4-4-6.6-8.9-8.8-14c-4.1-9.8-4.3-20.1-2.9-30.5c0.5-3.5,1.5-7,2.5-10.4 c0.2-0.9,0.2-1.4-0.7-2c-2-1.2-3.9-2.5-5.8-3.9c-0.9-0.6-1.5-0.6-2.3,0.2c-2.2,2-4.4,3.8-6.6,5.7c-7.2,6.2-14.7,11.9-22.9,16.8 c-13.6,8.1-27.9,14.5-42.7,19.8c-0.8,0.3-1.7,0.4-2.4,1.1c0.6,0.1,1.1,0.3,1.6,0.4c4.4,0.7,8.6,2.2,12.7,3.8 c6.5,2.6,12.7,5.8,19.1,8.6c8.9,4,17.5,8.6,26.1,13.3c7.9,4.3,16,8,24.3,11.5c4.1,1.7,8.1,3.5,12.4,4.9c6.3,2,12.6,4.1,19,6 c6.4,1.9,12.5,4.8,18.9,6.7c9.4,2.9,18,7.5,25.7,13.7c3.9,3.1,7.8,6.1,11.7,9.1c5.5,4.2,10.3,9,14.6,14.4 c5.7,7.2,10.9,14.8,16.2,22.3C482.4,385.5,482.7,386.2,483.6,386.6z M449.6,90c-0.2,0.6-0.3,1.1-0.5,1.7c-1.3,5.3-2.6,10.6-4,15.9 c-2.7,9.9-6.4,19.4-12,28c-7.9,11.9-16.4,23.4-25.6,34.4c-8.9,10.7-18.1,21.1-27.6,31.3c-7,7.6-13.9,15.3-21.7,22.2 c-0.1,0.1-0.2,0.3-0.4,0.6c0.2,0.2,0.3,0.4,0.4,0.5c7.1,5.1,14.6,9.3,22.6,12.8c6.8,3,14,4.3,21.5,3.7c7.8-0.6,12.9-7.7,12-14.7 c-0.2-1.1-0.2-2.3-0.1-3.5c0.1-2.7,0-2.6-2.1-2.9c-0.4-0.1-0.8-0.3-1.2-0.5c-0.8-0.4-1.3-1-1-1.9c0.2-1,0.9-1.5,1.9-1.5 c1.2,0,2.4,0.2,3.3,1c0.7,0.6,1.4,0.6,2.2,0.4c1.6-0.4,2.7-1.3,3.2-3c0.3-1.1,0.5-2.1,0.6-3.2c0.1-1.3,0-1.5-1.4-1.6 c-1.3,0-2.6,0-3.9-0.5c-2-0.7-3.9-0.8-6-0.6c-2.8,0.4-5.1-0.7-7.4-2.2c-0.6-0.4-1-0.9-0.6-1.6c0.4-0.7,1.1-0.7,1.7-0.5 c0.3,0.1,0.6,0.2,0.8,0.4c2.3,1.6,4.8,1.6,7.3,1.2c0.7-0.1,1.4-0.2,2.2,0c2.5,0.9,5.1,1.1,7.7,1.1c1.3,0,2.2-0.3,3-1.3 c0.4-0.5,0.8-1,1.2-1.5c1.2-1.5,1.5-3.1,0.2-4.8c-1.7-2.3-2-4.7-0.8-7.4c0.5-1.1,1.1-1.8,2.2-2.2c3-1.2,5.8-2.6,8.8-4 c1.8-0.8,3.5-1.7,4.9-3.2c1.7-1.9,2.3-4.8,1.1-6.9c-3.7-6.3-5.3-13.4-6.8-20.4c-0.4-1.8-0.5-3.8-0.3-5.7c0.6-7.1,3.4-13.4,7.2-19.2 c0.8-1.2,1.5-2.5,2.1-3.8c2.4-5.9,3.6-12.1,4.8-18.4C450.3,102.2,450.3,96.1,449.6,90z M314.3,599.7c0.2-0.1,0.4-0.3,0.6-0.4 c0.2-1,0.2-2,0.2-3c0.2-5.6,0.2-11.2,0.5-16.8c0.6-10.7-0.3-21.3-2.2-31.8c-1.4-8-4.4-15.5-6.7-23.3c-3-10.1-7.9-19.2-13.8-27.9 c-4.9-7.3-10.6-13.9-15.2-21.4c-0.2-0.3-0.4-0.4-0.7-0.4c-0.4,0.6-0.4,1.4-0.6,2.1c-1.6,8.1-2.8,16.2-4.2,24.3 c-1.9,11.1-3.9,22.1-5.8,33.1c-1.1,6.8-1.4,13.6-1,20.5c0.1,1.7,0.6,2.9,1.8,4c3.3,3.1,6.7,6.1,10.4,8.7 c11.7,8.4,22.6,17.7,32.8,27.9C311.7,596.8,313,598.3,314.3,599.7z M431,307.3c-1.6-2.3-3-4.7-4.4-7.1c-3.5-6-7-12.1-9.8-18.5 c-2.3-5-5.6-9.1-9.2-13.2c-2.2-2.4-4.7-4.3-7.7-5.6c-8.9-4-18.2-5.7-27.8-5.2c-3,0.2-5.9,0.7-8.9,0.1c-0.3,1.3-0.1,2.1,0.9,2.6 c1.1,0.6,2.1,1.4,3.2,1.9c3.3,1.5,6.4,3.5,9.2,5.8c3,2.4,6,4.9,9.1,7.2c12.8,9.6,25.7,18.9,38.7,28.1 C426.3,304.9,428.5,306.2,431,307.3z M453.2,73.9c-1,3.3-1.5,6.2-1.1,9.3c1.4,10.8,1,21.5-1.5,32.1c-1.5,6.4-3.8,12.5-7.3,18.1 c-2.2,3.6-3.6,7.5-4.7,11.5c-1.9,6.8-0.1,13.4,2.2,20c0.8-1.4,1.6-2.7,2.4-4c2.1-3.2,3.9-6.5,5.4-10c3.7-8.7,6.4-17.6,8.7-26.8 c1.1-4.2,1.7-8.6,2-12.9c0.7-10.6-0.6-20.9-3.7-31.1C454.8,78.2,454.3,76.1,453.2,73.9z M393.3,243.5c-10.4-1.1-18.8-6.3-27.7-10.9 c-0.7,3-1.4,5.6-1.9,8.3c-0.8,4-1.2,8.1-1.1,12.2c0,1.8,0.4,2.1,2.1,2.4c1.1,0.2,2.2,0.2,3.3,0c3-0.4,6.1-0.6,9.1-0.6 c0.7,0,1.3,0,1.9-0.3C384.7,252.3,389.4,248.7,393.3,243.5z M484.8,771.5c5.1-3.8,10-7.6,14.5-12.1c-3-0.7-5.6-1.6-8.2-2.7 c-0.9-0.4-1.3,0.1-2,0.4c-3.2,1.9-6.6,2.9-10.4,1.8c-0.4-0.1-0.8-0.3-1.4,0C480.1,762.8,482.5,766.9,484.8,771.5z M496.5,765.3 c-0.6-0.1-0.8,0.2-1.1,0.4c-2.7,2.4-5.5,4.6-8.3,6.7c-1.4,1.1-1.4,1.1-0.7,2.7c1.9,4.6,3.9,9.1,5.8,13.6c0.1,0.3,0.3,0.7,0.9,1 C494.5,781.6,495.8,773.5,496.5,765.3z" style="fill: inherit;"></path><path d="M417.7,180.9c0,3,1.2,4.6,4.2,5.4c0.3,0.1,0.6,0.1,0.8,0.2c0.7,0.2,1.1,0.7,1,1.4c-0.1,0.8-0.7,1-1.4,1 c-2.4,0.2-5.9-2.2-6.7-4.7c-0.5-1.5-0.6-3-0.3-4.5c0.2-0.8,0.5-1.4,1.4-1.3c1,0.1,1,0.9,1,1.6C417.7,180.3,417.7,180.6,417.7,180.9 z" style="fill: inherit;"></path><path d="M431.7,184.8c-0.1,0.8-0.7,1.2-1.4,1c-0.6-0.1-1.3-0.4-1.9-0.5c-1.6-0.4-3.2-0.6-4.7-0.1c-0.8,0.2-1.5,0.3-1.9-0.6 c-0.3-0.7,0.2-1.5,1.1-1.8c1.1-0.4,2.3-0.5,3.5-0.4c1.4,0.1,2.8,0.3,4.1,0.8C431.1,183.5,431.7,183.9,431.7,184.8z" style="fill: inherit;"></path></g></svg>